<svg width="64" height="64" xmlns="http://www.w3.org/2000/svg" xmlns:xlink="http://www.w3.org/1999/xlink">
  <defs/>
  <g>
    <path stroke="none" fill="#FFFFFF" d="M22.3 17.95 L23.3 19 16 19 Q11 19 11 24 L11 40 Q11 45 16 45 L48 45 Q53 45 53 40 L53 24 Q53 19 48 19 L40.7 19 41.7 17.95 41.8 17.85 42.85 16 48 16 Q56 16 56 24 L56 40 Q56 48 48 48 L16 48 Q8 48 8 40 L8 24 Q8 16 16 16 L21.2 16 Q21.5 17 22.25 17.85 L22.3 17.95 M32 26 Q33.85 26.05 35.3 24.65 L35.3 24.6 37.8 22 48 22 Q50 22 50 24 L50 40 Q50 42 48 42 L16 42 Q14 42 14 40 L14 24 Q14 22 16 22 L26.2 22 28.7 24.6 Q30 26 32 26 M30.85 22.5 L24.45 15.85 Q24 15.35 24 14.65 24 13.95 24.45 13.5 24.9 13 25.6 13 L38.4 13 Q39.05 13 39.55 13.5 40 13.95 40 14.65 40 15.35 39.55 15.85 L33.15 22.5 Q32.65 23 32 23 31.3 23 30.85 22.5"/>
  </g>
</svg>