<svg width="64" height="64" xmlns="http://www.w3.org/2000/svg" xmlns:xlink="http://www.w3.org/1999/xlink">
  <defs/>
  <g>
    <path stroke="none" fill="#FFFFFF" d="M54.05 38 L53.5 36.05 52.75 34.05 53 32 53 16 Q53 11 48 11 L16 11 Q11 11 11 16 L11 32 Q11 37 16 37 L26.9 37 27.3 38.55 Q25.25 38.7 23.75 40 L16 40 Q8 40 8 32 L8 16 Q8 8 16 8 L48 8 Q56 8 56 16 L56 32 Q56 36 54.05 38 M37.35 33.65 L45.55 33.25 Q47.5 33.15 48.75 33.9 L50 35.3 50.55 36.55 50.6 36.85 52.1 42.4 Q52.8 45.2 51.85 47.85 L51 49.7 Q48.95 53.3 45 54.4 41 55.45 37.35 53.35 L36.2 52.6 Q34.1 50.8 31.35 50 L28.3 49.7 Q26.7 49.8 25.5 48.6 24.2 47.45 24.1 45.75 24.05 44.05 25.15 42.75 26.2 41.55 27.8 41.5 L31.25 41.75 28.1 29.9 Q27.65 28.3 28.45 26.85 L28.9 26.35 Q29.6 25.45 30.8 25.05 L31.05 25 33.3 25.15 33.9 25.4 Q35.35 26.25 35.8 27.85 L37.35 33.65"/>
  </g>
</svg>