<svg width="64" height="64" xmlns="http://www.w3.org/2000/svg" xmlns:xlink="http://www.w3.org/1999/xlink">
  <defs/>
  <g>
    <path stroke="none" fill="#FFFFFF" d="M32 11 Q21.5 11 11.05 15 L11.05 15.05 15.65 35.15 16.25 36.1 16.35 36.2 Q17.2 36.95 18.35 37 L26.9 37 27.3 38.55 Q25.25 38.7 23.75 40 L18.25 40 Q15.9 39.95 14.15 38.25 13.15 37.2 12.75 36 L8.1 15.65 Q7.8 14.55 8.4 13.6 8.9 12.6 9.95 12.2 20.95 8 32 8 43.05 8 54.05 12.2 55.1 12.6 55.6 13.6 56.2 14.55 55.9 15.65 L52 32.9 50.45 31.4 50.35 31.35 49.4 30.85 53 15.05 53 15 52.95 15 Q42.5 11 32 11 M37.35 33.65 L45.55 33.25 Q47.45 33.15 48.7 33.9 L48.75 33.9 50 35.3 50.6 36.85 52.1 42.4 Q52.8 45.2 51.85 47.85 L51 49.7 Q48.95 53.3 45 54.4 41 55.45 37.35 53.35 L36.2 52.6 Q34.1 50.8 31.35 50 L28.3 49.7 Q26.7 49.8 25.5 48.6 24.2 47.45 24.1 45.75 24.05 44.05 25.15 42.75 26.2 41.55 27.8 41.5 L31.25 41.75 28.1 29.9 Q27.65 28.3 28.45 26.85 L28.9 26.35 Q29.6 25.45 30.8 25.05 L31.05 25 33.3 25.15 33.9 25.4 Q35.35 26.25 35.8 27.85 L37.35 33.65"/>
  </g>
</svg>