<svg width="64" height="64" xmlns="http://www.w3.org/2000/svg" xmlns:xlink="http://www.w3.org/1999/xlink">
  <defs/>
  <g>
    <path stroke="none" fill="#FFFFFF" d="M29.8 17.85 L30.85 16 32 16 40.1 16.6 42.85 17.05 Q48.45 18.05 54.05 20.2 55.1 20.6 55.6 21.6 56.2 22.55 55.9 23.65 L51.25 44 Q50.85 45.2 49.85 46.25 48.1 47.95 45.75 48 L18.25 48 Q15.9 47.95 14.15 46.25 13.15 45.2 12.75 44 L8.1 23.65 Q7.8 22.55 8.4 21.6 8.9 20.6 9.95 20.2 L11.8 19.55 14.15 21.95 11.05 23 11.05 23.05 15.65 43.15 16.25 44.1 16.35 44.2 Q17.2 44.95 18.35 45 L45.75 45 Q46.85 44.95 47.7 44.2 L47.75 44.1 48.4 43.15 53 23.05 53 23 52.95 23 Q47.6 20.95 42.2 19.95 L39.75 19.55 32 19 28.6 19.1 29.7 17.95 29.8 17.85 M18.85 22.5 L12.45 15.85 Q12 15.35 12 14.65 12 13.95 12.45 13.5 12.9 13 13.6 13 L26.4 13 Q27.05 13 27.55 13.5 28 13.95 28 14.65 28 15.35 27.55 15.85 L21.15 22.5 Q20.65 23 20 23 19.3 23 18.85 22.5 M23.3 24.65 L23.3 24.6 24.4 23.5 24.45 23.6 24.85 24.6 26.65 39.8 26.45 40.85 25.75 41.7 24.65 42 20.05 42 Q19.35 42 18.8 41.6 18.25 41.15 18.1 40.45 L14.95 26.75 Q14.75 25.95 15.2 25.3 15.55 24.6 16.35 24.35 L16.45 24.35 16.7 24.6 Q18 26 20 26 21.85 26.05 23.3 24.65"/>
  </g>
</svg>