<svg width="64" height="64" xmlns="http://www.w3.org/2000/svg" xmlns:xlink="http://www.w3.org/1999/xlink">
  <defs/>
  <g>
    <path stroke="none" fill="#FFFFFF" d="M56.5 30.85 Q57 31.3 57 32 57 32.65 56.5 33.15 L49.85 39.55 Q49.35 40 48.65 40 47.95 40 47.5 39.55 47 39.05 47 38.4 L47 34 36.6 34 35.55 35.55 Q34.1 37 32 37 29.95 37 28.5 35.55 27 34.05 27 32 27 29.9 28.5 28.45 29.95 27 32 27 34.1 27 35.55 28.45 L36.6 30 47 30 47 25.6 Q47 24.9 47.5 24.45 47.95 24 48.65 24 49.35 24 49.85 24.45 L56.5 30.85 M45.4 41.7 L45.75 42 16 42 Q14 42 14 40 L14 24 Q14 22 16 22 L45.8 22 45.5 22.25 Q44 23.55 44 25.6 L44 27 38.3 27 37.7 26.35 Q35.35 24 32 24 28.75 24 26.45 26.3 L26.4 26.35 Q24 28.7 24 32 24 35.3 26.4 37.7 28.7 40 32 40 35.35 40 37.7 37.7 L37.7 37.65 38.25 37 44 37 44 38.4 Q43.95 40.25 45.4 41.7 M53 23.3 Q52.65 19 48 19 L16 19 Q11 19 11 24 L11 40 Q11 45 16 45 L48 45 Q52.65 45 53 40.75 L56 37.8 56 40 Q56 48 48 48 L16 48 Q8 48 8 40 L8 24 Q8 16 16 16 L48 16 Q56 16 56 24 L56 26.2 53 23.3"/>
  </g>
</svg>