<svg width="64" height="64" xmlns="http://www.w3.org/2000/svg" xmlns:xlink="http://www.w3.org/1999/xlink">
  <defs/>
  <g>
    <path stroke="none" fill="#FFFFFF" d="M38.65 26 Q40.35 25.95 41.7 24.6 42.8 23.55 43 22 L48 22 Q50 22 50 24 L50 40 Q50 42 48 42 L16 42 Q14 42 14 40 L14 24 Q14 22 16 22 L21.05 22 Q21.2 23.45 22.25 24.5 23.55 26 25.6 26 L26.7 26 26.35 26.3 Q24 28.65 24 32 24 35.25 26.3 37.55 L26.35 37.6 Q28.7 40 32 40 35.3 40 37.7 37.6 40 35.3 40 32 40 28.65 37.7 26.3 L37.65 26.3 37.3 26 38.4 26 38.65 26 M30.85 13.5 Q31.3 13 32 13 32.65 13 33.15 13.5 L39.55 20.15 Q40 20.65 40 21.35 L39.9 22 39.55 22.5 Q39.05 23 38.4 23 L34 23 34 27.4 35.55 28.45 Q37 29.9 37 32 37 34.05 35.55 35.5 34.05 37 32 37 29.9 37 28.45 35.5 27 34.05 27 32 27 29.9 28.45 28.45 29.15 27.75 30 27.4 L30 23 25.6 23 Q24.9 23 24.45 22.5 L24.15 22 24 21.35 Q24 20.65 24.45 20.15 L30.85 13.5 M22.3 18.05 L22.25 18.15 21.65 19 16 19 Q11 19 11 24 L11 40 Q11 45 16 45 L48 45 Q53 45 53 40 L53 24 Q53 19 48 19 L42.4 19 41.8 18.15 41.7 18.05 39.75 16 48 16 Q56 16 56 24 L56 40 Q56 48 48 48 L16 48 Q8 48 8 40 L8 24 Q8 16 16 16 L24.3 16 22.3 18.05"/>
  </g>
</svg>