<svg width="64" height="64" xmlns="http://www.w3.org/2000/svg" xmlns:xlink="http://www.w3.org/1999/xlink">
  <defs/>
  <g>
    <path stroke="none" fill="#FFFFFF" d="M9.95 20.2 Q20.95 16 32 16 43.05 16 54.05 20.2 55.1 20.6 55.6 21.6 56.2 22.55 55.9 23.65 L51.25 44 Q50.85 45.2 49.85 46.25 48.1 47.95 45.75 48 L18.25 48 Q15.9 47.95 14.15 46.25 13.15 45.2 12.75 44 L12.3 41.9 Q13.6 43 15.35 43 L15.65 43 15.65 43.15 16.25 44.1 16.35 44.2 Q17.2 44.95 18.35 45 L45.75 45 Q46.85 44.95 47.7 44.2 L47.75 44.1 48.4 43.15 53 23.05 53 23 52.95 23 Q42.5 19 32 19 24.3 19 16.6 21.15 L15.35 21 Q13.5 21 12.15 22.25 L12.05 22.3 11.5 22.85 11.05 23 11.05 23.05 11.1 23.25 8.55 25.65 8.1 23.65 Q7.8 22.55 8.4 21.6 8.9 20.6 9.95 20.2 M32 22 Q40.75 22 49.45 24.95 L45.55 42 18.45 42 18.45 41.9 18.6 41.7 Q20.05 40.25 20 38.4 L20 37 25.75 37 26.3 37.65 26.3 37.7 Q28.65 40 32 40 35.3 40 37.6 37.7 40 35.3 40 32 40 28.7 37.6 26.35 L37.55 26.3 Q35.25 24 32 24 28.65 24 26.3 26.35 L25.7 27 20 27 20 25.6 Q20 24.45 19.5 23.5 25.75 22 32 22 M7.5 30.85 L14.15 24.45 Q14.65 24 15.35 24 15.95 24 16.4 24.35 L16.5 24.45 Q17 24.9 17 25.6 L17 30 27.4 30 Q27.75 29.15 28.45 28.45 29.9 27 32 27 34.05 27 35.5 28.45 37 29.9 37 32 37 34.05 35.5 35.55 34.05 37 32 37 29.9 37 28.45 35.55 27.75 34.85 27.4 34 L17 34 17 38.4 Q17 39.05 16.5 39.55 16.05 40 15.35 40 L14.95 39.95 Q14.5 39.85 14.15 39.55 L7.5 33.15 Q7 32.65 7 32 7 31.3 7.5 30.85"/>
  </g>
</svg>