<svg width="64" height="64" xmlns="http://www.w3.org/2000/svg" xmlns:xlink="http://www.w3.org/1999/xlink">
  <defs/>
  <g>
    <path stroke="none" fill="#FFFFFF" d="M19 12 L45 12 Q47.9 12 49.95 14.05 52 16.1 52 19 52 21.9 49.95 23.95 47.9 26 45 26 L19 26 Q16.1 26 14.05 23.95 12 21.9 12 19 12 16.1 14.05 14.05 16.1 12 19 12 M47.85 21.85 Q49 20.65 49 19 49 17.35 47.85 16.2 46.65 15 45 15 L19 15 Q17.35 15 16.2 16.2 15 17.35 15 19 15 20.65 16.2 21.85 17.35 23 19 23 L45 23 Q46.65 23 47.85 21.85 M29 34.95 Q29 34.15 29.55 33.55 L29.9 33.3 Q30.35 33 30.95 33 L33.05 33 Q33.65 33 34.15 33.3 L34.45 33.55 Q35 34.15 35 34.95 L35 40.25 29 36 29 34.95 M24.4 38.85 Q24.05 38.6 24 38.2 23.9 37.75 24.15 37.45 24.4 37.1 24.8 37.05 L25.55 37.2 39.55 47.2 39.95 47.85 39.75 48.6 39.15 49 38.4 48.85 24.4 38.85 M27 45.05 L27.25 45.7 28 46 29.25 46 33 48.7 33 50 34.85 50 36.65 51.3 36.7 51.35 37 51.55 37 52 27 52 27 50 31 50 31 48 26.95 48 26.4 47.95 Q25.95 47.8 25.55 47.45 L25.45 47.35 Q25 46.8 25 46.05 L25 43 27 44.4 27 45.05 M37 40 L39 40 39 43.1 37 41.7 37 40"/>
  </g>
</svg>