<svg width="64" height="64" xmlns="http://www.w3.org/2000/svg" xmlns:xlink="http://www.w3.org/1999/xlink">
  <defs/>
  <g>
    <path stroke="none" fill="#FFFFFF" d="M48 16 Q56 16 56 24 L56 40 Q56 48 48 48 L16 48 Q8 48 8 40 L8 37.8 11.05 40.75 Q11.35 45 16 45 L48 45 Q53 45 53 40 L53 24 Q53 19 48 19 L16 19 Q11.35 19 11.05 23.3 L8 26.2 8 24 Q8 16 16 16 L48 16 M18.6 41.7 Q20.05 40.25 20 38.4 L20 37 25.75 37 26.3 37.65 26.3 37.7 Q28.65 40 32 40 35.3 40 37.6 37.7 40 35.3 40 32 40 28.7 37.6 26.35 L37.55 26.3 Q35.25 24 32 24 28.65 24 26.3 26.35 L25.7 27 20 27 20 25.6 Q20 23.55 18.5 22.25 L18.25 22 48 22 Q50 22 50 24 L50 40 Q50 42 48 42 L18.3 42 18.6 41.7 M7.5 30.85 L14.15 24.45 Q14.65 24 15.35 24 16.05 24 16.5 24.45 17 24.9 17 25.6 L17 30 27.4 30 Q27.75 29.15 28.45 28.45 29.9 27 32 27 34.05 27 35.5 28.45 37 29.9 37 32 37 34.05 35.5 35.55 34.05 37 32 37 29.9 37 28.45 35.55 27.75 34.85 27.4 34 L17 34 17 38.4 Q17 39.05 16.5 39.55 16.05 40 15.35 40 14.65 40 14.15 39.55 L7.5 33.15 Q7 32.65 7 32 7 31.3 7.5 30.85"/>
  </g>
</svg>