<svg width="64" height="64" xmlns="http://www.w3.org/2000/svg" xmlns:xlink="http://www.w3.org/1999/xlink">
  <defs/>
  <g>
    <path stroke="none" fill="#FFFFFF" d="M56.5 30.85 Q57 31.3 57 32 57 32.65 56.5 33.15 L49.85 39.55 Q49.35 40 48.65 40 47.95 40 47.5 39.55 47 39.05 47 38.4 L47 34 36.6 34 35.55 35.55 Q34.1 37 32 37 29.95 37 28.5 35.55 27.8 34.85 27.45 34 L17 34 17 38.4 Q17 39.05 16.5 39.55 16.05 40 15.35 40 14.65 40 14.15 39.55 L7.5 33.15 Q7 32.65 7 32 7 31.3 7.5 30.85 L14.15 24.45 Q14.65 24 15.35 24 16.05 24 16.5 24.45 17 24.9 17 25.6 L17 30 27.4 30 Q27.8 29.15 28.5 28.45 29.95 27 32 27 34.1 27 35.55 28.45 L36.6 30 47 30 47 25.6 Q47 24.9 47.5 24.45 47.95 24 48.65 24 49.35 24 49.85 24.45 L56.5 30.85 M18.5 22.25 L18.25 22 45.8 22 45.5 22.25 Q44 23.55 44 25.6 L44 27 38.3 27 37.7 26.35 Q35.35 24 32 24 28.75 24 26.45 26.3 L26.4 26.35 25.7 27.1 25.7 27 20 27 20 25.6 Q20 23.55 18.5 22.25 M16 16 L48 16 Q56 16 56 24 L56 26.2 53 23.3 Q52.65 19 48 19 L16 19 Q11.35 19 11.05 23.3 L8 26.2 8 24 Q8 16 16 16 M48 48 L16 48 Q8 48 8 40 L8 37.8 11.05 40.75 Q11.35 45 16 45 L48 45 Q52.65 45 53 40.75 L56 37.8 56 40 Q56 48 48 48 M45.4 41.7 L45.75 42 18.3 42 18.6 41.7 Q20.05 40.25 20 38.4 L20 37 25.7 37 25.7 36.95 26.4 37.7 Q28.7 40 32 40 35.35 40 37.7 37.7 L37.7 37.65 38.25 37 44 37 44 38.4 Q43.95 40.25 45.4 41.7"/>
  </g>
</svg>