<svg width="64" height="64" xmlns="http://www.w3.org/2000/svg" xmlns:xlink="http://www.w3.org/1999/xlink">
  <defs/>
  <g>
    <path stroke="none" fill="#FFFFFF" d="M36 12 Q36 13.05 35.3 13.9 L34.25 14.8 Q33.25 15.5 32 15.8 L32 17 Q32 17.8 31.4 18.4 30.8 19 30 19 29.2 19 28.6 18.4 28 17.8 28 17 L28 15.8 Q26.75 15.5 25.75 14.8 24 13.65 24 12 24 10.35 25.75 9.15 L26.15 8.9 Q27.75 8 30 8 32.5 8 34.25 9.15 36 10.35 36 12 M22.1 27.9 Q18.25 25.35 16.85 20.9 15.5 16.6 16.4 12.55 17.25 7.3 22.45 8.1 20.9 9.85 21 12 20.85 15.15 24.1 17.3 L24.05 17.3 25.1 17.9 Q25.3 19.35 26.5 20.55 28 22.05 30 22 32 22.05 33.55 20.55 34.7 19.35 34.95 17.9 L35.95 17.3 35.9 17.3 37.5 16 Q46.4 25 47.7 39.95 48.7 48.55 46.75 52.5 L46.4 53.1 Q45.15 54.95 43.15 55.65 L41.95 55.9 41 56 Q39.4 56.05 38.2 55.05 30.15 48.25 26.75 36.15 L26.7 36 Q25.2 30.9 22.1 27.9"/>
  </g>
</svg>